<?xml version="1.0" standalone="no"?>
<!DOCTYPE svg PUBLIC "-//W3C//DTD SVG 20010904//EN"
 "http://www.w3.org/TR/2001/REC-SVG-20010904/DTD/svg10.dtd">
<svg version="1.0" xmlns="http://www.w3.org/2000/svg"
 width="150.000000pt" height="150.000000pt" viewBox="0 0 150.000000 150.000000"
 preserveAspectRatio="xMidYMid meet">
<metadata>
Created by potrace 1.14, written by Peter Selinger 2001-2017
</metadata>
<g transform="translate(0.000000,150.000000) scale(0.100000,-0.100000)"
fill="#000000" stroke="none">
<path d="M744 1215 c-52 -41 -316 -368 -412 -511 -21 -31 -47 -57 -63 -63 -30
-10 -54 -45 -43 -63 5 -7 3 -8 -6 -3 -9 5 -10 2 -5 -14 5 -15 -11 -49 -59
-129 -35 -59 -68 -120 -71 -135 -9 -35 17 -67 55 -67 29 0 55 21 42 34 -4 4
-1 6 7 4 17 -4 174 249 164 265 -3 6 -1 7 6 3 9 -6 209 27 357 59 20 4 21 0
27 -108 7 -135 22 -208 48 -242 26 -32 40 -32 78 1 35 29 37 44 17 141 -14 64
-43 489 -48 709 -3 84 -6 106 -22 123 -24 27 -34 26 -72 -4z m-16 -480 c-4 -5
-243 -55 -259 -55 -5 0 49 73 119 162 l127 162 9 -133 c4 -72 6 -134 4 -136z"/>
<path d="M1190 1221 c-117 -36 -175 -131 -145 -236 33 -116 165 -170 287 -117
48 21 68 45 68 81 0 25 -26 27 -54 6 -24 -18 -75 -19 -110 -3 -14 6 -35 30
-46 53 -39 80 -18 145 46 145 36 0 63 -20 95 -70 14 -22 20 -24 45 -15 25 9
29 16 32 51 3 44 -28 97 -51 88 -7 -2 -32 2 -56 11 -47 16 -72 18 -111 6z"/>
<path d="M1066 661 c-49 -10 -61 -29 -36 -56 17 -18 20 -36 20 -128 0 -94 -2
-109 -20 -127 -25 -25 -25 -37 -1 -50 32 -16 147 -13 165 6 20 19 20 16 -4 45
-15 16 -20 34 -18 59 l3 35 50 0 50 0 -2 -45 c-2 -29 -8 -49 -20 -58 -14 -10
-15 -16 -7 -30 8 -13 28 -18 75 -20 82 -4 109 3 109 29 0 11 -7 22 -15 25 -12
5 -15 28 -15 122 0 105 2 118 22 139 21 22 21 24 5 40 -24 24 -150 24 -173 1
-15 -15 -15 -18 5 -44 11 -14 21 -39 21 -54 0 -22 -6 -29 -26 -33 -36 -6 -78
6 -82 25 -3 16 11 53 30 80 8 11 9 21 3 27 -15 14 -94 21 -139 12z"/>
</g>
</svg>
